<svg width="32" height="32" viewBox="0 0 32 32" fill="none" xmlns="http://www.w3.org/2000/svg">
<path d="M15.4067 3.18994C17.1218 3.02966 18.7683 3.5726 20.0356 4.729L20.0386 4.73096C21.2923 5.86178 22.0063 7.48669 22.0063 9.17334V10.6362L22.4536 10.6841C24.1374 10.8645 25.3074 11.3525 26.0913 12.1245L26.2427 12.2827C27.3645 13.5481 27.3679 15.2651 27.2241 16.5649L26.2905 24.0181L26.2896 24.0259C26.1536 25.2817 25.8379 26.4516 24.9487 27.3188C24.0631 28.1825 22.5169 28.8334 19.7202 28.8335H12.2798C9.4831 28.8335 7.93683 28.1828 7.05127 27.3179C6.16209 26.4491 5.84644 25.2759 5.71045 24.0132L5.70947 24.0044L4.77588 16.5776C4.63158 15.2595 4.62283 13.5452 5.75635 12.2817L5.75732 12.2827C6.5392 11.4191 7.75048 10.8765 9.54639 10.6841L9.99268 10.6362V9.41357C9.99268 6.3194 12.4954 3.47118 15.4077 3.19092L15.4067 3.18994ZM11.2134 14.3667C10.204 14.3667 9.37957 15.1904 9.37939 16.1997C9.37939 17.2092 10.2039 18.0337 11.2134 18.0337H11.2261C12.2355 18.0337 13.0601 17.2092 13.0601 16.1997C13.0599 15.1872 12.2327 14.3668 11.2134 14.3667ZM20.5464 14.3667C19.5371 14.3668 18.7136 15.1904 18.7134 16.1997C18.7134 17.2091 19.537 18.0336 20.5464 18.0337H20.5601C21.5694 18.0336 22.3931 17.2091 22.3931 16.1997C22.3929 15.1871 21.5658 14.3667 20.5464 14.3667ZM19.4683 5.36279C18.3757 4.3737 16.9704 3.91614 15.5015 4.04834L15.4995 4.04932C14.2269 4.17052 13.0648 4.87265 12.228 5.84326C11.3905 6.81497 10.8462 8.09167 10.8462 9.41357V10.6069H21.1528V9.17334C21.1528 7.72759 20.5481 6.33908 19.4683 5.36279Z" fill="#FAFAFA" stroke="#FAFAFA"/>
</svg>
