<svg width="175" height="175" viewBox="0 0 175 175" fill="none" xmlns="http://www.w3.org/2000/svg">
<g clip-path="url(#clip0_116_3137)">
<path d="M134.995 101.033C139.511 93.2139 141.729 84.2794 141.396 75.2559C141.062 66.2324 138.19 57.486 133.11 50.0212C128.029 42.5565 120.946 36.6762 112.674 33.0557C104.402 29.4353 95.2763 28.2216 86.3455 29.554C77.4147 30.8864 69.0409 34.7109 62.1858 40.5881C55.3307 46.4654 50.2724 54.1571 47.592 62.7797C44.9115 71.4024 44.7176 80.6062 47.0325 89.3341C49.3474 98.0619 54.0772 105.96 60.6787 112.121L57.4256 139.387C57.4256 139.387 75.504 125.862 79.4125 122.937C89.789 126.105 100.933 125.664 111.027 121.686C121.12 117.708 129.569 110.428 134.995 101.033Z" fill="#DD7400"/>
<path d="M117.426 35.4641C110.895 31.6873 103.564 29.506 96.0303 29.0977C88.4968 28.6894 80.9733 30.0657 74.0722 33.1146C65.3321 38.8892 58.6265 47.2631 54.902 57.0542C51.1774 66.8452 50.6222 77.5587 53.3146 87.6823C56.007 97.8059 61.811 106.828 69.9073 113.475C78.0036 120.123 87.9832 124.059 98.4373 124.729C108.517 123.676 118.004 119.458 125.538 112.68C133.073 105.901 138.266 96.9108 140.375 86.998C142.484 77.0852 141.399 66.7593 137.276 57.5012C133.153 48.2431 126.204 40.5286 117.426 35.4641Z" fill="#EFBF8A"/>
<path d="M73.4257 111.674C92.5574 122.72 117.021 116.165 128.067 97.0334C139.112 77.9016 132.557 53.438 113.426 42.3923C94.294 31.3466 69.8304 37.9016 58.7847 57.0334C47.739 76.1651 54.294 100.629 73.4257 111.674Z" fill="#600008"/>
<path d="M107.962 43.8564C99.6251 39.0378 89.8245 37.4047 80.3761 39.2598C70.8074 42.55 62.8432 49.3476 58.091 58.2807C53.3387 67.2138 52.1523 77.617 54.7711 87.3907C57.39 97.1644 63.6191 105.581 72.2012 110.941C80.7833 116.301 91.0793 118.206 101.011 116.271C108.265 113.776 114.647 109.247 119.396 103.223C124.146 97.1995 127.061 89.9362 127.794 82.3007C128.526 74.6651 127.046 66.98 123.529 60.1629C120.013 53.3459 114.608 47.685 107.962 43.8564Z" fill="#CF0012"/>
<path d="M81.703 63.3372C82.5072 63.8015 83.4248 64.0326 84.3529 64.0048C85.281 63.977 86.1831 63.6912 86.958 63.1796C87.7329 62.668 88.35 61.9507 88.7402 61.1081C89.1304 60.2655 89.2782 59.3309 89.1671 58.409C90.0211 58.0442 90.7565 57.4489 91.2912 56.6897C91.8258 55.9305 92.1384 55.0374 92.1941 54.1105C92.2497 53.1836 92.0461 52.2595 91.6062 51.4418C91.1662 50.6241 90.5072 49.9451 89.703 49.4808L85.3729 46.9808C84.9136 46.7156 84.3676 46.6437 83.8553 46.781C83.3429 46.9183 82.9061 47.2535 82.6409 47.7128L76.6409 58.1051C76.3757 58.5645 76.3038 59.1104 76.4411 59.6228C76.5784 60.1351 76.9136 60.572 77.3729 60.8372L81.703 63.3372ZM83.703 59.8731L81.105 58.3731L82.105 56.641L84.703 58.141C84.9327 58.2736 85.1003 58.4921 85.169 58.7482C85.2376 59.0044 85.2017 59.2774 85.0691 59.5071C84.9365 59.7367 84.718 59.9043 84.4619 59.973C84.2057 60.0416 83.9327 60.0057 83.703 59.8731ZM87.703 52.9449C87.9327 53.0775 88.1003 53.2959 88.169 53.5521C88.2376 53.8083 88.2017 54.0812 88.0691 54.3109C87.9365 54.5406 87.718 54.7082 87.4619 54.7768C87.2057 54.8455 86.9327 54.8095 86.703 54.6769L84.105 53.1769L85.105 51.4449L87.703 52.9449Z" fill="white"/>
<path d="M96.4256 71.8372L98.4256 68.3731L93.2295 65.3731L94.2295 63.641L99.4256 66.641L101.426 63.1769L96.2295 60.1769L97.2295 58.4449L102.426 61.4449L104.426 57.9808L97.4974 53.9808C97.0381 53.7156 96.4922 53.6437 95.9798 53.781C95.4674 53.9183 95.0306 54.2535 94.7654 54.7128L88.7654 65.1051C88.5002 65.5645 88.4283 66.1104 88.5656 66.6228C88.7029 67.1351 89.0381 67.572 89.4974 67.8372L96.4256 71.8372Z" fill="white"/>
<path d="M110.818 70.909C111.083 70.4496 111.155 69.9037 111.018 69.3913C110.88 68.879 110.545 68.4421 110.086 68.1769L106.622 66.1769L107.622 64.4449L112.818 67.4449L114.818 63.9808L107.89 59.9808C107.43 59.7156 106.884 59.6437 106.372 59.781C105.86 59.9183 105.423 60.2535 105.158 60.7128L102.158 65.909C101.892 66.3683 101.821 66.9143 101.958 67.4266C102.095 67.939 102.43 68.3758 102.89 68.641L106.354 70.641L105.354 72.3731L100.158 69.3731L98.1577 72.8372L105.086 76.8372C105.545 77.1024 106.091 77.1743 106.604 77.037C107.116 76.8997 107.553 76.5645 107.818 76.1051L110.818 70.909Z" fill="white"/>
<path d="M124.942 74.4449L126.942 70.9808L116.55 64.9808L114.55 68.4449L118.014 70.4449L112.014 80.8372L115.478 82.8372L121.478 72.4449L124.942 74.4449Z" fill="white"/>
<path d="M63.9807 60.0333L57.9807 70.4256C57.7155 70.885 57.6436 71.4309 57.7809 71.9433C57.9182 72.4556 58.2534 72.8925 58.7128 73.1577L65.641 77.1577L67.641 73.6936L62.4448 70.6936L66.4448 63.7654L71.641 66.7654L73.641 63.3013L66.7128 59.3013C66.2534 59.0361 65.7075 58.9642 65.1951 59.1015C64.6828 59.2388 64.2459 59.574 63.9807 60.0333Z" fill="white"/>
<path d="M79.3012 73.4974L75.8371 71.4974L78.8371 66.3013L75.373 64.3013L67.373 78.1577L70.8371 80.1577L73.8371 74.9615L77.3012 76.9615L74.3012 82.1577L77.7654 84.1577L85.7654 70.3013L82.3012 68.3013L79.3012 73.4974Z" fill="white"/>
<path d="M96.1576 76.3013L89.2294 72.3013C88.77 72.0361 88.2241 71.9642 87.7117 72.1015C87.1994 72.2388 86.7625 72.574 86.4973 73.0333L80.4973 83.4256C80.2321 83.885 80.1602 84.4309 80.2975 84.9433C80.4348 85.4556 80.77 85.8925 81.2294 86.1577L88.1576 90.1577C88.6169 90.4229 89.1628 90.4948 89.6752 90.3575C90.1876 90.2202 90.6244 89.885 90.8896 89.4256L96.8896 79.0333C97.1548 78.574 97.2267 78.028 97.0894 77.5157C96.9521 77.0033 96.6169 76.5665 96.1576 76.3013ZM88.4255 85.6936L84.9614 83.6936L88.9614 76.7654L92.4255 78.7654L88.4255 85.6936Z" fill="white"/>
<path d="M99.6218 78.3013L103.086 80.3013L95.0859 94.1577L91.6218 92.1577L99.6218 78.3013Z" fill="white"/>
<path d="M103.818 83.0333L97.8179 93.4256C97.5527 93.885 97.4808 94.4309 97.6181 94.9433C97.7554 95.4556 98.0906 95.8925 98.5499 96.1577L105.478 100.158L107.478 96.6936L102.282 93.6936L106.282 86.7654L111.478 89.7654L113.478 86.3013L106.55 82.3013C106.091 82.0361 105.545 81.9642 105.032 82.1015C104.52 82.2388 104.083 82.574 103.818 83.0333Z" fill="white"/>
<path d="M121.87 95.7654L123.87 92.3013L116.942 88.3013C116.483 88.0361 115.937 87.9642 115.425 88.1015C114.912 88.2388 114.475 88.574 114.21 89.0333L108.21 99.4256C107.945 99.885 107.873 100.431 108.01 100.943C108.148 101.456 108.483 101.892 108.942 102.158L115.87 106.158L117.87 102.694L112.674 99.6936L113.674 97.9615L118.87 100.962L120.87 97.4974L115.674 94.4974L116.674 92.7654L121.87 95.7654Z" fill="white"/>
</g>
<defs>
<clipPath id="clip0_116_3137">
<rect width="128" height="128" fill="white" transform="translate(64) rotate(30)"/>
</clipPath>
</defs>
</svg>
