<svg width="32" height="32" viewBox="0 0 32 32" fill="none" xmlns="http://www.w3.org/2000/svg">
<path d="M7.45361 3.16663C7.75676 3.16669 8.05549 3.23159 8.31689 3.35706L8.32373 3.36096C8.59603 3.48668 8.83016 3.67092 9.01514 3.93811L9.01904 3.94299L12.1118 8.30237L12.1138 8.3053C12.3357 8.61347 12.4881 8.8864 12.5903 9.13635L12.5933 9.14319C12.6938 9.37771 12.7397 9.59088 12.7397 9.76038C12.7397 9.97961 12.6765 10.2107 12.5327 10.4469L12.5249 10.4606C12.3795 10.7178 12.1571 11.0022 11.8599 11.2994L11.853 11.3063L10.8394 12.36C10.596 12.6069 10.4868 12.9084 10.4868 13.2399C10.4868 13.3938 10.5067 13.5282 10.5415 13.6676L10.5483 13.6959L10.5581 13.7223C10.5824 13.7871 10.6073 13.8438 10.6245 13.8844C10.6434 13.929 10.6524 13.9524 10.6587 13.9713L10.6733 14.0133L10.6938 14.0524C10.9575 14.5357 11.3962 15.1396 11.9917 15.8434L11.9946 15.8473C12.5997 16.5465 13.2474 17.2614 13.9497 17.9772L13.9526 17.9801C14.0244 18.0518 14.0993 18.1232 14.1685 18.1891C14.2392 18.2564 14.3052 18.319 14.3667 18.3805L14.3706 18.3844C14.7067 18.7121 14.7135 19.2456 14.3794 19.5797L11.9126 22.0465C11.5895 22.3694 11.072 22.3753 10.73 22.0504C10.6553 21.976 10.5818 21.9049 10.5122 21.8385C10.4387 21.7683 10.3694 21.7025 10.3013 21.6344H10.3022C8.94653 20.2655 7.72229 18.8328 6.63135 17.3346H6.63232C5.691 16.0259 4.91464 14.7231 4.31787 13.4352L4.07373 12.8844C3.46822 11.4143 3.16656 10.0278 3.1665 8.72034C3.1665 7.87302 3.31609 7.0696 3.61084 6.33264L3.61182 6.32971C3.86679 5.68166 4.25326 5.07547 4.78564 4.51917L5.02295 4.28381L5.03076 4.276C5.80856 3.51045 6.62161 3.16663 7.45361 3.16663Z" fill="#FAFAFA" stroke="#FAFAFA"/>
<path d="M29.2931 24.44C29.2931 24.8133 29.2265 25.2 29.0931 25.5733C29.0531 25.68 29.0131 25.7866 28.9598 25.8933C28.7331 26.3733 28.4398 26.8266 28.0531 27.2533C27.3998 27.9733 26.6798 28.4933 25.8665 28.8266C25.8531 28.8266 25.8398 28.84 25.8265 28.84C25.0398 29.16 24.1865 29.3333 23.2665 29.3333C21.9065 29.3333 20.4531 29.0133 18.9198 28.36C17.3865 27.7066 15.8531 26.8266 14.3331 25.72C13.8131 25.3333 13.2931 24.9466 12.7998 24.5333L17.1598 20.1733C17.5331 20.4533 17.8665 20.6666 18.1465 20.8133C18.2131 20.84 18.2931 20.88 18.3865 20.92C18.4931 20.96 18.5998 20.9733 18.7198 20.9733C18.9465 20.9733 19.1198 20.8933 19.2665 20.7466L20.2798 19.7466C20.6131 19.4133 20.9331 19.16 21.2398 19C21.5465 18.8133 21.8531 18.72 22.1865 18.72C22.4398 18.72 22.7065 18.7733 22.9998 18.8933C23.2931 19.0133 23.5998 19.1866 23.9331 19.4133L28.3465 22.5466C28.6931 22.7866 28.9331 23.0666 29.0798 23.4C29.2131 23.7333 29.2931 24.0666 29.2931 24.44Z" fill="#FAFAFA"/>
</svg>
